/vscmnt/brussel_pixiu_data/_data_brussel/112/vsc11236/PredSimResults/SUBJ10opt3D/expIG/worker_14.mot
version=1
nRows=7
nColumns=50
inDegrees=yes
endheader
                time	         pelvis_tilt	         pelvis_list	     pelvis_rotation	           pelvis_tx	           pelvis_ty	           pelvis_tz	       hip_flexion_r	     hip_adduction_r	      hip_rotation_r	        knee_angle_r	       ankle_angle_r	         mtp_angle_r	       hip_flexion_l	     hip_adduction_l	      hip_rotation_l	        knee_angle_l	       ankle_angle_l	         mtp_angle_l	    lumbar_extension	      lumbar_bending	     lumbar_rotation	 ercspn_r/activation	 intobl_r/activation	 extobl_r/activation	    abd_r/activation	    add_r/activation	hamstrings_r/activation	bifemsh_r/activation	glut_max_r/activation	iliopsoas_r/activation	rect_fem_r/activation	  vasti_r/activation	gastroc_r/activation	 soleus_r/activation	tib_ant_r/activation	 ercspn_l/activation	 intobl_l/activation	 extobl_l/activation	    abd_l/activation	    add_l/activation	hamstrings_l/activation	bifemsh_l/activation	glut_max_l/activation	iliopsoas_l/activation	rect_fem_l/activation	  vasti_l/activation	gastroc_l/activation	 soleus_l/activation	tib_ant_l/activation	
          0.36482983	         -9.66472901	          2.16367358	         -2.84487483	          0.69317668	          0.82715893	         -0.00166032	        -14.21180799	          0.21148079	         -2.90971218	        -15.39713397	        -11.27199828	         31.17025290	         37.05195348	          4.08158732	          0.84376522	        -24.63623902	          5.95822199	          0.44972363	         -4.07380616	         -3.02668845	          9.38960391	          0.11173135	          0.00999999	          0.00999999	          0.01354581	          0.23255579	          0.03359354	          0.06138743	          0.01582585	          0.65000661	          0.03527852	          0.01026066	          0.22559762	          0.10776653	          0.00999999	          0.19651323	          0.01821541	          0.00999999	          0.02388801	          0.22168011	          0.37609301	          0.26045717	          0.02081795	          0.05099848	          0.00999999	          0.00999999	          0.01121609	          0.00999999	          0.55383129	
          0.37212643	         -9.60374116	          2.09432629	         -2.76535997	          0.70882700	          0.82414529	         -0.00187167	        -13.77929335	          0.17272763	         -3.16446481	        -18.03801306	        -11.90335981	         30.81899554	         36.50113362	          4.32438977	          1.19202252	        -25.16159822	          5.59365741	          0.44109571	         -3.90736286	         -3.17806651	          9.37484583	          0.12873299	          0.00999999	          0.00999999	          0.01207711	          0.25388136	          0.03723154	          0.05473153	          0.01410994	          0.57953000	          0.03145346	          0.00999999	          0.20113732	          0.09608200	          0.00999999	          0.17520639	          0.01624041	          0.01121609	          0.02129797	          0.28885924	          0.33531533	          0.23221724	          0.07066649	          0.04546900	          0.01121609	          0.03504361	          0.00999999	          0.00999999	          0.49378244	
          0.37942303	         -9.53768478	          2.05322442	         -2.67270548	          0.72451018	          0.82094291	         -0.00206919	        -13.12386891	          0.08701371	         -3.40970203	        -21.05025307	        -12.61041510	         30.24638871	         36.00205019	          4.56876288	          1.59448809	        -26.42752184	          5.76393218	          0.37410556	         -3.73434685	         -3.36773595	          9.31730261	          0.16763146	          0.00999999	          0.00999999	          0.01076766	          0.22635442	          0.04082808	          0.06913767	          0.01258008	          0.51669478	          0.02804314	          0.00999999	          0.17932912	          0.08566437	          0.00999999	          0.15620973	          0.01447955	          0.00999999	          0.09304938	          0.34657134	          0.29895895	          0.20703921	          0.14818301	          0.04053905	          0.00999999	          0.03694963	          0.00999999	          0.00999999	          0.44024434	
          0.38671962	         -9.46964178	          2.03862239	         -2.55699426	          0.74010441	          0.81770520	         -0.00226342	        -12.24520380	         -0.04123247	         -3.65175387	        -24.37170565	        -13.50002006	         29.40818895	         35.57936953	          4.80182197	          1.90235065	        -27.99031822	          6.79527100	          0.44772789	         -3.56885323	         -3.59089447	          9.21228920	          0.20006048	          0.00999999	          0.00999999	          0.00999999	          0.23500737	          0.03883601	          0.06905104	          0.01121609	          0.46067243	          0.02500258	          0.00999999	          0.15988545	          0.07637625	          0.00999999	          0.13927278	          0.01290961	          0.00999999	          0.20605986	          0.30899453	          0.26654449	          0.18459110	          0.14983804	          0.03614362	          0.00999999	          0.18314232	          0.00999999	          0.00999999	          0.39251109	
          0.39401622	         -9.40361198	          2.06190488	         -2.41104558	          0.75546605	          0.81471112	         -0.00245246	        -11.13471274	         -0.22024307	         -3.89160375	        -27.92847788	        -14.69434872	         28.24088902	         35.21818255	          5.03732060	          2.06316960	        -29.72657992	          8.53067577	          0.75201674	         -3.42763039	         -3.85849963	          9.05440425	          0.25483963	          0.06386782	          0.00999999	          0.00999999	          0.20952683	          0.03462524	          0.07260189	          0.00999999	          0.41072427	          0.02229169	          0.00999999	          0.14254996	          0.06809520	          0.01624047	          0.12417220	          0.01150990	          0.00999999	          0.26427410	          0.27549197	          0.23764455	          0.16457691	          0.13708222	          0.03222477	          0.00999999	          0.32848209	          0.05974948	          0.01121609	          0.34995329	
          0.40131282	         -9.34286989	          2.11973798	         -2.24676098	          0.77053389	          0.81220081	         -0.00264493	         -9.80546408	         -0.44799225	         -4.10850745	        -31.64232948	        -16.10893073	         26.51240953	         34.79636031	          5.29466637	          2.18355223	        -31.36216231	         10.59538952	          1.21795941	         -3.31682191	         -4.15599976	          8.85231802	          0.28036925	          0.11295876	          0.00999999	          0.00999999	          0.18680900	          0.03087102	          0.06473007	          0.00999999	          0.36619172	          0.01987472	          0.00999999	          0.12709406	          0.06071202	          0.13429564	          0.11070890	          0.01026194	          0.00999999	          0.30435334	          0.24562190	          0.21187807	          0.14673275	          0.12221916	          0.02873082	          0.00999999	          0.39600511	          0.06978830	          0.00999999	          0.31200980	
          0.40860941	         -9.28959778	          2.20005908	         -2.07284219	          0.78527559	          0.81026259	         -0.00283911	         -8.29922776	         -0.69944404	         -4.27770618	        -35.46294788	        -17.15812948	         24.20662998	         34.24467925	          5.56503473	          2.30822510	        -32.69896405	         12.55254191	          1.73456718	         -3.23954594	         -4.46126142	          8.60943427	          0.28767777	          0.11943155	          0.00999999	          0.00999999	          0.16655433	          0.02752384	          0.08087781	          0.00999999	          0.32648758	          0.01771982	          0.00999999	          0.11331396	          0.05412935	          0.11973471	          0.10098609	          0.00999999	          0.00999999	          0.31666729	          0.21899048	          0.18890531	          0.13082333	          0.10896761	          0.02561569	          0.00999999	          0.44853656	          0.09869039	          0.00999999	          0.27818031	
